<svg id="Layer_1" data-name="Layer 1" xmlns="http://www.w3.org/2000/svg" xmlns:xlink="http://www.w3.org/1999/xlink" viewBox="0 0 62.44 40.09"><defs><style>.cls-1{fill:none;}.cls-2{clip-path:url(#clip-path);}.cls-3{clip-path:url(#clip-path-2);}</style><clipPath id="clip-path" transform="translate(-928.74 -519.98)"><rect class="cls-1" x="924" y="504" width="72" height="72"/></clipPath><clipPath id="clip-path-2" transform="translate(-928.74 -519.98)"><rect class="cls-1" x="924" y="504" width="72" height="72"/></clipPath></defs><g class="cls-2"><g class="cls-3"><path d="M937.83,546.06a24.13,24.13,0,0,1-2-5.32,37.89,37.89,0,0,0-7.06,1.56s4.9,11.58,14.52,15.81a25.33,25.33,0,0,0,11,1.93C950.36,558.39,942.08,554.11,937.83,546.06Z" transform="translate(-928.74 -519.98)"/><path d="M984.08,540.74a23.83,23.83,0,0,1-2,5.32c-4.25,8.05-12.53,12.33-16.41,14a25.53,25.53,0,0,0,11-1.93c9.62-4.23,14.52-15.81,14.52-15.81A37.61,37.61,0,0,0,984.08,540.74Z" transform="translate(-928.74 -519.98)"/><path d="M948.3,539.62a26.37,26.37,0,0,1,2-9.64,38.3,38.3,0,0,0-11.38-6.69s-3.35,12.11,1.56,21.4c3.41,6.46,9.87,10.28,13.71,12.08C951.47,552.82,948.3,546.65,948.3,539.62Z" transform="translate(-928.74 -519.98)"/><path d="M981,523.29a38,38,0,0,0-11.5,6.8,26.63,26.63,0,0,1,1.91,9.53c0,7.1-3.24,13.32-5.93,17.26,3.8-1.74,10.47-5.59,14-12.19C984.36,535.4,981,523.29,981,523.29Z" transform="translate(-928.74 -519.98)"/><path d="M968.48,539.63c0,10.82-8.62,19.64-8.62,19.64s-8.62-8.82-8.62-19.64c0-10.5,8.62-19.65,8.62-19.65S968.48,529.13,968.48,539.63Z" transform="translate(-928.74 -519.98)"/></g></g></svg>