<svg id="Layer_1" data-name="Layer 1" xmlns="http://www.w3.org/2000/svg" xmlns:xlink="http://www.w3.org/1999/xlink" viewBox="0 0 41.79 37.79"><defs><style>.cls-1{fill:none;}.cls-2{clip-path:url(#clip-path);}.cls-3{fill:#156082;}</style><clipPath id="clip-path" transform="translate(-939.12 -521.11)"><rect class="cls-1" x="936.37" y="516.38" width="47.25" height="47.25"/></clipPath></defs><g class="cls-2"><g class="cls-2"><circle class="cls-3" cx="972.19" cy="524.52" r="3.41" transform="translate(-940.24 -519.02) rotate(-0.12)"/><circle class="cls-3" cx="947.83" cy="524.52" r="3.41" transform="translate(-950.78 -499.45) rotate(-1.3)"/><circle class="cls-3" cx="960.01" cy="524.52" r="3.41" transform="translate(-950.53 -499.67) rotate(-1.27)"/><path class="cls-3" d="M968.68,540.4l-2.19-8.09a2.07,2.07,0,0,0-.44-.77,8.43,8.43,0,0,0-3.36-2.15,8.08,8.08,0,0,0-5.26,0,8,8,0,0,0-3.36,2.15,2.37,2.37,0,0,0-.44.77l-2.19,8.09a1.48,1.48,0,0,0,1,1.85,1.07,1.07,0,0,0,.39,0,1.5,1.5,0,0,0,1.41-1.07l2-7.11v24.79h2.92V545h2v13.88H964V534.12l2,7.11a1.52,1.52,0,0,0,1.42,1.07,1,1,0,0,0,.38,0A1.55,1.55,0,0,0,968.68,540.4Z" transform="translate(-939.12 -521.11)"/><path class="cls-3" d="M950.42,540.16l2.19-8.09a3.38,3.38,0,0,1,.58-1.17,8.21,8.21,0,0,0-2.77-1.56,7.93,7.93,0,0,0-2.63-.43,7.84,7.84,0,0,0-2.63.43,8,8,0,0,0-3.36,2.15,2.16,2.16,0,0,0-.44.78l-2.19,8.13a1.48,1.48,0,0,0,1,1.85,1,1,0,0,0,.39,0,1.5,1.5,0,0,0,1.41-1.07l2-7.11v24.79h2.92V545h1.95v13.88h2.92V543.08A2.56,2.56,0,0,1,950.42,540.16Z" transform="translate(-939.12 -521.11)"/><path class="cls-3" d="M980.86,540.4l-2.24-8.09a2.07,2.07,0,0,0-.44-.77,8.5,8.5,0,0,0-3.36-2.15,7.93,7.93,0,0,0-2.63-.44,7.85,7.85,0,0,0-2.63.44,8.66,8.66,0,0,0-2.78,1.56,2.82,2.82,0,0,1,.59,1.12l2.19,8.09a2.52,2.52,0,0,1-1.32,2.92v15.83h2.92V545h2v13.88H976V534.12l2,7.11a1.52,1.52,0,0,0,1.42,1.07,1,1,0,0,0,.38,0A1.52,1.52,0,0,0,980.86,540.4Z" transform="translate(-939.12 -521.11)"/></g></g></svg>