<svg id="Layer_1" data-name="Layer 1" xmlns="http://www.w3.org/2000/svg" xmlns:xlink="http://www.w3.org/1999/xlink" viewBox="0 0 49.68 44.99"><defs><style>.cls-1{fill:none;}.cls-2{clip-path:url(#clip-path);}.cls-3{fill:#009193;opacity:0.58;}</style><clipPath id="clip-path" transform="translate(-935.23 -517.52)"><rect class="cls-1" x="931.87" y="511.87" width="56.25" height="56.25"/></clipPath></defs><g class="cls-2"><g class="cls-2"><path class="cls-3" d="M951.07,549l1.21-4.52-.19-.69a3.68,3.68,0,0,1-.58.07,2.86,2.86,0,0,1-.77-.1,2.78,2.78,0,0,1-1.69-1.25,3.19,3.19,0,0,1-.34-2.38l2.61-9.62v-.06a4.06,4.06,0,0,1,.66-1.23,10.19,10.19,0,0,0-3.29-1.89,9.83,9.83,0,0,0-10.26,2.55,3.07,3.07,0,0,0-.53.93l-2.6,9.63a1.76,1.76,0,0,0,1.2,2.19h0a1.22,1.22,0,0,0,.46.06,1.81,1.81,0,0,0,1.69-1.28L941,533v4l-3.31,12.35H941v13.16h3.48V549.35h2.32v13.1h3.48v-13.1H951Z" transform="translate(-935.23 -517.52)"/><path class="cls-3" d="M984.85,540.48l-2.61-9.63a2.47,2.47,0,0,0-.53-.93,10.12,10.12,0,0,0-4-2.55,9.77,9.77,0,0,0-9.55,1.89,4,4,0,0,1,.67,1.23v.06l2.62,9.65a3,3,0,0,1-1.89,3.59,2.42,2.42,0,0,1-.8.11,3.68,3.68,0,0,1-.58-.07l-.19.69L969.2,549l.08.31H970v13.16h3.48V549.35h2.32v13.1h3.48v-13.1h3.3L979.29,537v-4l2.32,8.46a1.79,1.79,0,0,0,1.68,1.28,1.22,1.22,0,0,0,.46-.06A1.86,1.86,0,0,0,984.85,540.48Z" transform="translate(-935.23 -517.52)"/><path class="cls-3" d="M970.34,540.48l-2.61-9.63a2.45,2.45,0,0,0-.52-.93,10.19,10.19,0,0,0-4-2.55,9.86,9.86,0,0,0-10.27,2.55,2.85,2.85,0,0,0-.52.93l-2.61,9.63a1.76,1.76,0,0,0,1.19,2.19h0a1.17,1.17,0,0,0,.46.06,1.81,1.81,0,0,0,1.69-1.28L955.5,533v4l-3.31,12.35h3.31v13.16H959V549.35h2.32v13.1h3.48v-13.1h3.31L964.77,537v-4l2.32,8.46a1.81,1.81,0,0,0,1.68,1.28,1.24,1.24,0,0,0,.47-.06A1.86,1.86,0,0,0,970.34,540.48Z" transform="translate(-935.23 -517.52)"/><circle class="cls-3" cx="39.28" cy="4.06" r="4.06"/><path class="cls-3" d="M949.58,521.57a4.06,4.06,0,1,1-4.06-4.05A4.06,4.06,0,0,1,949.58,521.57Z" transform="translate(-935.23 -517.52)"/><circle class="cls-3" cx="960.01" cy="521.57" r="4.06" transform="translate(-515.87 953.45) rotate(-88.85)"/></g></g></svg>